<svg xmlns="http://www.w3.org/2000/svg" viewBox="0 0 32 32">
  <defs>
    <linearGradient id="g" x1="0" y1="0" x2="1" y2="1">
      <stop offset="0%" stop-color="#67e8f9"/>
      <stop offset="50%" stop-color="#818cf8"/>
      <stop offset="100%" stop-color="#e879f9"/>
    </linearGradient>
  </defs>
  <circle cx="16" cy="16" r="15" fill="none" stroke="url(#g)" stroke-width="1.5"/>
  <circle cx="16" cy="16" r="13" fill="white" fill-opacity="0.95"/>
  <g transform="translate(8,6)" fill="none" stroke="url(#g)" stroke-width="1.2" stroke-linecap="round">
    <path d="M8 0C4 0 1 3 1 7c0 3 1.5 5.5 3 7.5"/>
    <path d="M8 0c4 0 7 3 7 7c0 2.5-1 4.5-2.5 6.5"/>
    <path d="M8 3C5.5 3 3.5 5 3.5 7c0 2 1 4 2 5.5"/>
    <path d="M8 3c2.5 0 4.5 2 4.5 4c0 1.5-.5 3-1.5 4.5"/>
    <path d="M8 6c-1 0-2 1-2 2s.5 2.5 1 3.5"/>
    <path d="M8 6c1 0 2 1 2 2s-.5 2-1 3"/>
    <path d="M3 15c1 1.5 2 2.5 3 3"/>
    <path d="M10 14c1-1 2-2.5 2.5-4"/>
    <path d="M5 17l1 1.5"/>
    <path d="M9 16l1.5-1"/>
  </g>
</svg>
